<?xml version="1.0" encoding="UTF-8"?>
<!-- Generator: Adobe Illustrator 22.1.0, SVG Export Plug-In . SVG Version: 6.00 Build 0)  -->
<svg version="1.1" id="Layer_1" xmlns="http://www.w3.org/2000/svg" xmlns:xlink="http://www.w3.org/1999/xlink" x="0px" y="0px" viewBox="0 0 257.4 79.1" style="enable-background:new 0 0 257.4 79.1;" xml:space="preserve">
<style type="text/css">
	.st0{display:none;}
	.st1{display:inline;}
	.st2{clip-path:url(#SVGID_5_);fill:none;stroke:#FF5665;stroke-width:2;stroke-miterlimit:10;}
	.st3{filter:url(#Adobe_OpacityMaskFilter);}
	.st4{fill:url(#SVGID_6_);}
	.st5{mask:url(#SVGID_1_);}
	.st6{fill:url(#SVGID_7_);}
	.st7{fill:url(#SVGID_8_);}
	.st8{fill:url(#SVGID_9_);}
	.st9{filter:url(#Adobe_OpacityMaskFilter_1_);}
	.st10{fill:url(#SVGID_10_);}
	.st11{mask:url(#SVGID_2_);}
	.st12{fill:url(#SVGID_11_);}
	.st13{fill:url(#SVGID_12_);}
	.st14{fill:url(#SVGID_13_);}
	.st15{filter:url(#Adobe_OpacityMaskFilter_2_);}
	.st16{fill:url(#SVGID_14_);}
	.st17{mask:url(#SVGID_4_);fill:url(#SVGID_15_);}
	.st18{fill:#FF6C00;}
</style>
<g class="st0">
	<g class="st1">
		<defs>
			<path id="SVGID_3_" d="M26.2,46.9l4-10.3c0,0-5.2-1.6-10.8-3.1c-5.5-1.5-7.3-7.5-6.2-11.2s-23.6,14.5-23.6,14.5l17.2,39l36,3.6     l0.8-9L32.8,59.9L26.2,46.9z M86.9,10l-5.8-9.1L43.5-5.5L15.1,4.3l31.8,9.3l11.7,2l14.2,9.2l9.1,17.7l5.9-1.7l4.5-11.7L86.9,10z"/>
		</defs>
		<clipPath id="SVGID_5_">
			<use xlink:href="#SVGID_3_" style="overflow:visible;"/>
		</clipPath>
		<path class="st2" d="M45.8,4.5c-15.1,0-28,9.6-32.9,23c-1.4,3.7-2.1,7.8-2.1,12c0,16,10.7,29.5,25.4,33.7"/>
	</g>
</g>
<g>
	<defs>
		<filter id="Adobe_OpacityMaskFilter" filterUnits="userSpaceOnUse" x="12.8" y="22.3" width="30.8" height="34.6">
			<feColorMatrix type="matrix" values="1 0 0 0 0  0 1 0 0 0  0 0 1 0 0  0 0 0 1 0"/>
		</filter>
	</defs>
	<mask maskUnits="userSpaceOnUse" x="12.8" y="22.3" width="30.8" height="34.6" id="SVGID_1_">
		<g class="st3">
			
				<linearGradient id="SVGID_6_" gradientUnits="userSpaceOnUse" x1="-16.4311" y1="53.0277" x2="25.9446" y2="53.0277" gradientTransform="matrix(0.9575 -0.1031 -0.1234 -1.1467 30.0382 99.9238)">
				<stop offset="0" style="stop-color:#231F20"/>
				<stop offset="0.8506" style="stop-color:#FFFFFF"/>
			</linearGradient>
			<polygon class="st4" points="51,57.7 9.7,62.2 5.1,19.5 46.4,15.1    "/>
		</g>
	</mask>
	<g class="st5">
		
			<linearGradient id="SVGID_7_" gradientUnits="userSpaceOnUse" x1="19.9199" y1="36.5511" x2="35.7324" y2="60.6761" gradientTransform="matrix(1 0 0 -1 0 87.4898)">
			<stop offset="0" style="stop-color:#B3C1CB;stop-opacity:0.5"/>
			<stop offset="0.9958" style="stop-color:#545B69"/>
		</linearGradient>
		<path class="st6" d="M39.3,45.8c0-5.2,1.6-10,4.3-14c-0.4-0.3-0.8-0.5-1.2-0.7c-1.9-0.9-4-1.6-6.1-2.2c-2.4-0.7-4.5-1.3-6.1-1.7    c-0.3-0.1-0.6-0.2-0.8-0.3c-9.1-2.6-16.3-4.6-16.3-4.6c-1.3,4.7,1.5,9.9,6.2,11.2c2.5,0.7,10.8,3.1,10.8,3.1s-1.6,6.2-3.9,15.5    c4.3,4,10.2,5.5,15.6,4.5C40.2,53.4,39.3,49.8,39.3,45.8z"/>
	</g>
	
		<linearGradient id="SVGID_8_" gradientUnits="userSpaceOnUse" x1="37.6282" y1="23.6438" x2="65.5737" y2="65.2769" gradientTransform="matrix(1 0 0 -1 0 87.4898)">
		<stop offset="0" style="stop-color:#BCCFE3;stop-opacity:0.5"/>
		<stop offset="0.2173" style="stop-color:#A9BCCA;stop-opacity:0.6482"/>
		<stop offset="0.5502" style="stop-color:#90A3A9;stop-opacity:0.8753"/>
		<stop offset="0.7331" style="stop-color:#86999D"/>
	</linearGradient>
	<path class="st7" d="M47,63.5c0.5,0.5,2,1.9,4,3.6c-4.1-4.1-6.6-9.8-6.6-16.1c0-12.7,10.3-23,23-23c0.8,0,1.6,0,2.4,0.1   c-3.5-4.3-5.8-6-7.4-7.3c-12.8,1-23.1,11.8-23.1,24.9C39.3,53,42.3,58.9,47,63.5z"/>
	
		<linearGradient id="SVGID_9_" gradientUnits="userSpaceOnUse" x1="44.3867" y1="25.9953" x2="70.2686" y2="27.6694" gradientTransform="matrix(1 0 0 -1 0 87.4898)">
		<stop offset="0" style="stop-color:#DBE5F5;stop-opacity:0.6"/>
		<stop offset="0.1739" style="stop-color:#CAD4E4;stop-opacity:0.6695"/>
		<stop offset="0.5205" style="stop-color:#9CA9B7;stop-opacity:0.8082"/>
		<stop offset="1" style="stop-color:#546470"/>
	</linearGradient>
	<path class="st8" d="M67.9,61.1c-0.7-0.6-4.9-4.4-6.7-6c-3.3-2.9-3.9-7.9-1-11.3c1-1.3,2.4-2.1,3.9-2.5   c-7.6,2.2-13.2,9.2-13.2,17.5c0,4.3,1.5,8.3,4,11.4c0.3,0.3,0.5,0.6,0.8,0.9c4.5,4,9,8,9,8s2.6-2.3,4.4-4.5   c0.2-0.2,0.4-0.5,0.5-0.7C72.5,69.6,71,63.8,67.9,61.1z"/>
	<defs>
		<filter id="Adobe_OpacityMaskFilter_1_" filterUnits="userSpaceOnUse" x="6.2" y="11.1" width="23.2" height="15.8">
			<feColorMatrix type="matrix" values="1 0 0 0 0  0 1 0 0 0  0 0 1 0 0  0 0 0 1 0"/>
		</filter>
	</defs>
	<mask maskUnits="userSpaceOnUse" x="6.2" y="11.1" width="23.2" height="15.8" id="SVGID_2_">
		<g class="st9">
			
				<linearGradient id="SVGID_10_" gradientUnits="userSpaceOnUse" x1="-34.641" y1="79.8741" x2="0.109" y2="70.7491" gradientTransform="matrix(1.0736 1.816234e-02 -1.816234e-02 -1.0045 41.3458 97.6987)">
				<stop offset="0" style="stop-color:#231F20"/>
				<stop offset="0.7365" style="stop-color:#FFFFFF"/>
			</linearGradient>
			<polygon class="st10" points="38.7,36.9 -0.8,27.1 4.3,6.6 43.8,16.4    "/>
		</g>
	</mask>
	<g class="st11">
		
			<linearGradient id="SVGID_11_" gradientUnits="userSpaceOnUse" x1="13.8792" y1="57.5568" x2="19.7102" y2="73.217" gradientTransform="matrix(1 0 0 -1 0 87.4898)">
			<stop offset="0" style="stop-color:#B3C1CB;stop-opacity:0.7"/>
			<stop offset="0.951" style="stop-color:#4B657B"/>
		</linearGradient>
		<path class="st12" d="M24.1,16.1c0,0-17.4-4.9-17.6-5c-1.3,4.8,1.5,9.8,6.3,11.1c4.3,1.2,4.9,1.4,16.6,4.7    C21.8,24.2,24.1,16.1,24.1,16.1z"/>
	</g>
	
		<linearGradient id="SVGID_12_" gradientUnits="userSpaceOnUse" x1="5.8965" y1="74.6063" x2="61.3897" y2="68.8525" gradientTransform="matrix(1 0 0 -1 0 87.4898)">
		<stop offset="0" style="stop-color:#687991;stop-opacity:0.4"/>
		<stop offset="1" style="stop-color:#BECFD8"/>
	</linearGradient>
	<path class="st13" d="M57.2,30.4C57.2,30.5,57.2,30.5,57.2,30.4c3.4-1.6,7.7-2.7,12.6-2.2c-3.2-4-6.7-7.3-11-9.7   c-6.8-3.8-14.6-5.8-22.4-8.2C35.2,10,0.2,0,0,0l0,0c-1.3,4.8,1.5,9.7,6.3,11.1c7.2,2,26.5,7.5,27.7,7.8c2,0.6,4.3,1.2,6.6,1.9   C48.2,23,53.2,26.2,57.2,30.4z"/>
	
		<linearGradient id="SVGID_13_" gradientUnits="userSpaceOnUse" x1="45.677" y1="20.4809" x2="68.8817" y2="52.4517" gradientTransform="matrix(1 0 0 -1 0 87.4898)">
		<stop offset="0" style="stop-color:#B1C2D7;stop-opacity:0.4"/>
		<stop offset="0.951" style="stop-color:#596476"/>
	</linearGradient>
	<path class="st14" d="M72.9,32.8c-1-1.7-2-3.2-3.1-4.6c-0.8-0.1-1.6-0.1-2.4-0.1c-12.7,0-23,10.3-23,23c0,6.3,2.5,11.9,6.6,16.1   c0.7,0.7,1.5,1.4,2.4,2.1c0.7,0.6,1.5,1.3,2.2,1.9c-0.3-0.3-0.5-0.6-0.8-0.9c-2.5-3.1-4-7.1-4-11.4c0-8.4,5.6-15.3,13.2-17.5   c0,0,0.6-0.2,0.7-0.2c2.3-0.5,4.8,0.1,6.7,1.7c0.9,0.7,6.1,5.4,6.1,5.4S77.1,40.2,72.9,32.8z"/>
	<defs>
		<filter id="Adobe_OpacityMaskFilter_2_" filterUnits="userSpaceOnUse" x="23.8" y="16.1" width="33.4" height="25.9">
			<feColorMatrix type="matrix" values="1 0 0 0 0  0 1 0 0 0  0 0 1 0 0  0 0 0 1 0"/>
		</filter>
	</defs>
	<mask maskUnits="userSpaceOnUse" x="23.8" y="16.1" width="33.4" height="25.9" id="SVGID_4_">
		<g class="st15">
			
				<linearGradient id="SVGID_14_" gradientUnits="userSpaceOnUse" x1="-49.9381" y1="174.899" x2="-15.1881" y2="165.774" gradientTransform="matrix(1.2614 7.607994e-02 0.1529 -1.3812 52.1917 269.5321)">
				<stop offset="0" style="stop-color:#231F20"/>
				<stop offset="6.299207e-02" style="stop-color:#363334"/>
				<stop offset="0.5402" style="stop-color:#C6C4C5"/>
				<stop offset="0.7481" style="stop-color:#FFFFFF"/>
			</linearGradient>
			<polygon class="st16" points="54.9,53.4 10,38.1 19.5,10.2 64.4,25.5    "/>
		</g>
	</mask>
	
		<linearGradient id="SVGID_15_" gradientUnits="userSpaceOnUse" x1="9.1549" y1="49.7256" x2="65.3271" y2="68.5196" gradientTransform="matrix(1 0 0 -1 0 87.4898)">
		<stop offset="0" style="stop-color:#A5B2BB;stop-opacity:0.7"/>
		<stop offset="1" style="stop-color:#606989"/>
	</linearGradient>
	<path class="st17" d="M57.2,30.4c-4-4.2-9-7.4-16.7-9.6c-2.3-0.7-4.5-1.3-6.6-1.9c-0.5-0.1-4.3-1.2-9-2.6c-0.5-0.1-0.8-0.2-0.8-0.2   s-2.4,8.6,6.2,11.1c1.6,0.4,3.7,1.1,6.1,1.7c2.1,0.6,4.2,1.3,6.1,2.2c4.4,2,5.3,7.2,3.8,10.9c1.5-3.4,3.4-5.8,5.3-7.6   c2.2-2.1,4.1-3.2,5-3.6C57,30.6,57.2,30.5,57.2,30.4C57.2,30.5,57.2,30.5,57.2,30.4z"/>
</g>
<g>
	<path class="st18" d="M121,38.4c0,0-7.8-0.8-9.6,0.2c-0.7,0.4-1,0.9-1,1.8c0,0.5,0,0.9,0.1,1.2c0,0.3,0.1,0.5,0.3,0.7   c0.1,0.2,0.4,0.3,0.7,0.4c0.3,0.1,0.7,0.2,1.2,0.4c1.3,0.3,2.5,0.6,3.8,0.9c1.3,0.3,2.4,0.6,3.5,1.1c1,0.5,1.9,1.1,2.5,2   c0.7,0.9,1,2,1,3.5c0,1.3-0.2,2.4-0.6,3.2c-0.4,0.8-1,1.5-1.8,1.9c-0.8,0.5-1.7,0.8-2.8,1s-2.2,0.3-3.5,0.3c-4.1,0-8.6-0.6-8.6-0.6   l0.4-3.5c0,0,5.2,0.5,8.6,0.5c0.6,0,1.2,0,1.7-0.1c0.5,0,0.9-0.1,1.3-0.3c0.4-0.2,0.6-0.4,0.8-0.8c0.2-0.3,0.3-0.8,0.3-1.5   c0-0.5,0-0.9-0.1-1.1c-0.1-0.3-0.2-0.5-0.5-0.7c-0.2-0.2-0.5-0.3-0.8-0.4c-0.3-0.1-0.8-0.2-1.3-0.3c-1.9-0.4-3.5-0.8-4.8-1.1   s-2.4-0.7-3.2-1.3c-0.8-0.5-1.4-1.2-1.8-2c-0.4-0.8-0.6-2-0.6-3.4c0-1,0.2-1.9,0.6-2.6c0.4-0.7,1-1.4,1.7-1.8   c0.7-0.5,1.8-0.9,2.8-1.1c3.5-0.6,10.9,0,10.9,0L121,38.4z"/>
	<path class="st18" d="M137,56.6V38.5l-6.9-0.1l1-3.5h17.5l-1,3.6h-6.1v18.1H137z"/>
	<path class="st18" d="M157.3,56.6V34.9h16.2l-1.1,3.6h-10.6v5h8.9v3.6h-8.9v5.8h10.6l1.1,3.6L157.3,56.6L157.3,56.6z"/>
	<path class="st18" d="M196.8,47.1h-4.9l0.3-3.6h8.9V55c-0.5,0.3-1,0.5-1.7,0.7c-0.7,0.2-1.4,0.4-2.2,0.6c-0.8,0.2-1.6,0.3-2.4,0.4   c-0.8,0.1-1.7,0.1-2.5,0.1c-1.7,0-3.2-0.1-4.5-0.4c-1.3-0.3-2.4-0.8-3.3-1.6s-1.6-2-2-3.4c-0.5-1.5-0.7-3.4-0.7-5.8   c0-2.4,0.3-4.3,0.8-5.8s1.2-2.6,2.2-3.4c0.9-0.8,2.1-1.3,3.4-1.6c1.3-0.3,2.8-0.4,4.5-0.4c4.4,0,8,0,8,0l-1.1,3.6c0,0-4.2,0-6.8,0   c-0.9,0-1.8,0.1-2.6,0.2c-0.8,0.1-1.5,0.4-2,0.9c-0.6,0.5-1,1.2-1.3,2.2c-0.3,1-0.5,2.4-0.5,4.1c0,1.6,0.1,3,0.3,4   c0.2,1,0.6,1.8,1.1,2.3c0.5,0.6,1.2,0.9,2,1.1c0.8,0.2,1.9,0.3,3.1,0.3c0.7,0,1.4-0.1,2.1-0.2c0.7-0.1,1.3-0.3,1.8-0.4V47.1   L196.8,47.1z"/>
	<path class="st18" d="M209.9,45.7c0-2.4,0.3-4.4,0.9-5.9c0.6-1.5,1.3-2.6,2.3-3.4c1-0.8,2.1-1.3,3.4-1.6c1.3-0.3,2.7-0.4,4.2-0.4   s2.9,0.1,4.2,0.4c1.3,0.3,2.5,0.8,3.4,1.6c1,0.8,1.8,1.9,2.3,3.4c0.6,1.5,0.9,3.4,0.9,5.9c0,2.4-0.3,4.4-0.9,5.9s-1.3,2.6-2.3,3.4   c-1,0.8-2.1,1.3-3.4,1.6s-2.7,0.4-4.2,0.4s-2.9-0.1-4.2-0.4c-1.3-0.3-2.5-0.8-3.4-1.6c-1-0.8-1.8-1.9-2.3-3.4   C210.1,50.1,209.9,48.1,209.9,45.7z M220.7,38c-0.9,0-1.7,0-2.4,0.1c-0.8,0.1-1.4,0.4-2,0.8c-0.6,0.5-1,1.2-1.4,2.3   c-0.3,1-0.5,2.5-0.5,4.4s0.2,3.4,0.5,4.4c0.3,1,0.8,1.8,1.4,2.3c0.6,0.5,1.3,0.8,2,0.8c0.8,0.1,1.6,0.1,2.4,0.1s1.6,0,2.4-0.1   s1.4-0.4,2-0.8c0.6-0.5,1.1-1.2,1.4-2.3c0.3-1,0.5-2.5,0.5-4.4s-0.2-3.4-0.5-4.4s-0.8-1.8-1.4-2.3s-1.3-0.8-2-0.8   C222.3,38.1,221.5,38,220.7,38z"/>
	<path class="st18" d="M255.4,38.4c0,0-8.3-0.8-10.1,0.2c-0.7,0.4-1,0.9-1,1.8c0,0.5,0,0.9,0.1,1.2c0,0.3,0.1,0.5,0.3,0.7   c0.1,0.2,0.4,0.3,0.7,0.4c0.3,0.1,0.7,0.2,1.2,0.4c1.3,0.3,2.5,0.6,3.8,0.9c1.3,0.3,2.4,0.6,3.5,1.1c1,0.5,1.9,1.1,2.5,2   c0.7,0.9,1,2,1,3.5c0,1.3-0.2,2.4-0.6,3.2s-1,1.5-1.8,1.9c-0.8,0.5-1.7,0.8-2.8,1c-1.1,0.2-2.2,0.3-3.5,0.3c-4.1,0-8.6-0.6-8.6-0.6   l0.4-3.5c0,0,5.2,0.5,8.6,0.5c0.6,0,1.2,0,1.7-0.1c0.5,0,0.9-0.1,1.3-0.3s0.6-0.4,0.8-0.8c0.2-0.3,0.3-0.8,0.3-1.5   c0-0.5,0-0.9-0.1-1.1c-0.1-0.3-0.2-0.5-0.5-0.7c-0.2-0.2-0.5-0.3-0.8-0.4c-0.3-0.1-0.8-0.2-1.3-0.3c-1.9-0.4-3.5-0.8-4.8-1.1   s-2.4-0.7-3.2-1.3c-0.8-0.5-1.4-1.2-1.8-2s-0.6-2-0.6-3.4c0-1,0.2-1.9,0.6-2.6c0.4-0.7,1-1.4,1.7-1.8c0.7-0.5,1.8-0.9,2.8-1.1   c3.5-0.6,10.7,0,10.7,0L255.4,38.4z"/>
</g>
</svg>